<svg width="101" height="101" viewBox="0 0 101 101" fill="none" xmlns="http://www.w3.org/2000/svg">
<path d="M86.8078 95.8311C76.3673 106.254 49.6297 96.4603 27.0878 73.9571C4.54579 51.4539 -5.26439 24.7623 5.17607 14.3397L12.0503 7.47727C16.796 2.73975 24.6157 2.86498 29.5162 7.75698L40.1638 18.3863C45.0642 23.2783 45.1897 31.0846 40.444 35.8221L38.9675 37.2961C36.4052 39.8539 36.1545 43.9803 38.5353 46.8604C40.8318 49.6385 43.3076 52.4056 45.9919 55.0854C48.6763 57.7651 51.4482 60.2367 54.2311 62.5292C57.1162 64.9059 61.2496 64.6557 63.8119 62.0978L65.2884 60.6238C70.0341 55.8863 77.8538 56.0115 82.7542 60.9035L93.4019 71.5328C98.3023 76.4249 98.4277 84.2311 93.6821 88.9686L86.8078 95.8311Z" fill="#0038FF" stroke="#0038FF" stroke-width="1.5"/>
<path d="M79.1387 36.0021C77.8352 32.828 75.8926 29.8541 73.3109 27.2768C70.8749 24.845 68.0853 22.9812 65.1072 21.6855" stroke="#0038FF" stroke-width="1.5" stroke-linecap="round"/>
<path d="M65.1072 3.53752C72.2372 6.11609 78.9269 10.2585 84.6431 15.9649C90.5028 21.8144 94.7161 28.6853 97.2834 36.0038" stroke="#0038FF" stroke-width="1.5" stroke-linecap="round"/>
</svg>
