<svg width="33" height="30" viewBox="0 0 33 30" fill="none" xmlns="http://www.w3.org/2000/svg">
<path d="M28.3892 27.8389C25.106 30.8667 16.6981 28.0217 9.60949 21.4845C2.5209 14.9474 -0.564031 7.19347 2.7191 4.16571L4.88079 2.17218C6.37313 0.795933 8.83214 0.832312 10.3731 2.25344L13.7214 5.34125C15.2624 6.76237 15.3019 9.03009 13.8095 10.4063L13.3452 10.8345C12.5395 11.5776 12.4606 12.7763 13.2093 13.613C13.9315 14.42 14.71 15.2238 15.5541 16.0023C16.3983 16.7808 17.2699 17.4988 18.145 18.1647C19.0523 18.8552 20.3521 18.7825 21.1578 18.0394L21.6222 17.6112C23.1145 16.235 25.5735 16.2714 27.1145 17.6925L30.4628 20.7803C32.0038 22.2014 32.0432 24.4691 30.5509 25.8454L28.3892 27.8389Z" fill="white" stroke="white" stroke-width="1.5"/>
<path d="M25.9776 10.4585C25.5677 9.53644 24.9568 8.67253 24.1449 7.92382C23.3789 7.21739 22.5017 6.67597 21.5652 6.29956" stroke="white" stroke-width="1.5" stroke-linecap="round"/>
<path d="M21.5652 1.0277C23.8073 1.77677 25.9109 2.98014 27.7085 4.63783C29.5511 6.33713 30.876 8.3331 31.6833 10.4591" stroke="white" stroke-width="1.5" stroke-linecap="round"/>
</svg>
