<svg width="31" height="34" viewBox="0 0 31 34" fill="none" xmlns="http://www.w3.org/2000/svg">
<path d="M8.26798 3.9375C10.3722 2.71091 12.8723 2 15.5544 2C23.0403 2 29.1088 7.53814 29.1088 14.3698C29.1088 22.8507 18.2653 31.6875 15.5544 31.6875C12.8435 31.6875 2 22.8507 2 14.3698C2 12.1954 2.61475 10.1521 3.6943 8.37662" stroke="white" stroke-width="3" stroke-linecap="round"/>
<path d="M20.4412 15.0128C20.5689 14.6017 20.6374 14.1676 20.6374 13.7188C20.6374 11.1299 18.3617 9.03125 15.5545 9.03125C12.7472 9.03125 10.4716 11.1299 10.4716 13.7188C10.4716 16.3076 12.7472 18.4062 15.5545 18.4062C15.9443 18.4062 16.3238 18.3658 16.6885 18.2892" stroke="white" stroke-width="3" stroke-linecap="round"/>
</svg>
