<svg width="130" height="130" viewBox="0 0 130 130" fill="none" xmlns="http://www.w3.org/2000/svg">
<path d="M89.8706 40.7875C89.8949 40.7875 89.9274 40.7875 89.9599 40.7875C90.809 40.7875 91.5971 41.0516 92.2431 41.5066L92.2309 41.4984C92.7021 41.9087 93.019 42.4856 93.0962 43.1356V43.1478C93.1774 43.6434 93.2221 44.2122 93.2221 44.7931C93.2221 45.0572 93.214 45.3172 93.1937 45.5772V45.5406C92.2796 55.1647 88.3146 78.5037 86.2996 89.2775C85.4465 93.8397 83.7687 95.3672 82.1437 95.5134C78.6134 95.8425 75.9321 93.1816 72.5115 90.9391C67.1571 87.425 64.1306 85.2394 58.9346 81.8147C52.9262 77.8619 56.8221 75.6803 60.2428 72.1297C61.1406 71.1953 76.704 57.0375 77.0087 55.7537C77.0249 55.6766 77.0331 55.5912 77.0331 55.5019C77.0331 55.185 76.9153 54.8966 76.7243 54.6772C76.5131 54.5391 76.249 54.4619 75.9728 54.4619C75.7899 54.4619 75.6153 54.4984 75.4528 54.5594L75.4609 54.5553C74.9246 54.6772 66.3717 60.3295 49.8021 71.5122C47.9943 72.9381 45.7112 73.84 43.225 73.9456H43.2006C39.6784 73.5191 36.4812 72.735 33.4465 71.6178L33.7471 71.7153C29.9365 70.4722 26.91 69.8181 27.17 67.7137C27.3081 66.6196 28.8166 65.4997 31.6956 64.3541C49.4297 56.6272 61.2557 51.5342 67.1734 49.075C73.7018 45.6097 81.2703 42.7578 89.2287 40.9094L89.8665 40.7834L89.8706 40.7875ZM64.7156 4.16406C30.9887 4.24531 3.67651 31.6062 3.67651 65.3453C3.67651 99.1331 31.0659 126.527 64.8578 126.527C98.6496 126.527 126.039 99.1372 126.039 65.3453C126.039 31.6062 98.7268 4.24531 65.0081 4.16406H65C64.9052 4.16406 64.8104 4.16406 64.7156 4.16406Z" fill="#0038FF"/>
</svg>
