<svg width="32" height="29" viewBox="0 0 32 29" fill="none" xmlns="http://www.w3.org/2000/svg">
<path fill-rule="evenodd" clip-rule="evenodd" d="M0.462097 14.5C0.462097 6.49187 7.50157 0 16.1852 0C24.8688 0 31.9083 6.49187 31.9083 14.5C31.9083 22.5081 24.8688 29 16.1852 29C7.50157 29 0.462097 22.5081 0.462097 14.5ZM16.9352 9.10464C16.9352 8.69043 16.5994 8.35464 16.1852 8.35464C15.771 8.35464 15.4352 8.69043 15.4352 9.10464V14.2205C15.4352 14.6547 15.6606 15.0579 16.0305 15.2853L20.1802 17.8366C20.5331 18.0535 20.995 17.9433 21.212 17.5905C21.4289 17.2376 21.3187 16.7757 20.9659 16.5588L16.9352 14.0807V9.10464Z" fill="white"/>
</svg>
