<svg width="139" height="139" viewBox="0 0 139 139" fill="none" xmlns="http://www.w3.org/2000/svg">
<path d="M38.3229 48.6986C38.9181 43.9917 45.0353 37.5945 49.89 38.3043L49.8822 38.2966C54.6068 39.1944 58.3468 47.3261 60.4557 50.9825C61.95 53.6355 60.9797 56.3234 59.5859 57.4577C57.7057 58.9731 54.7656 61.0641 55.3825 63.1635C56.4792 66.8958 69.5 79.9167 75.9042 83.6182C78.3281 85.0193 80.0859 81.324 81.587 79.4307C82.6776 77.9745 85.3677 77.1042 88.0146 78.5417C91.9677 80.8437 95.6917 83.5193 99.1354 86.5312C100.855 87.9687 101.259 90.0932 100.067 92.3385C97.9682 96.2932 91.8974 101.508 87.4906 100.448C79.7938 98.5979 48.6667 86.5312 38.6684 51.573C38.1061 49.9192 38.2477 49.294 38.3229 48.6986Z" fill="#0038FF"/>
<path fill-rule="evenodd" clip-rule="evenodd" d="M69.5 126.792C63.1271 126.792 59.601 126.108 53.875 124.188L42.9085 129.671C35.9824 133.134 27.8333 128.097 27.8333 120.354V108.563C16.6174 98.1042 12.2083 86.0453 12.2083 69.5C12.2083 37.8587 37.8587 12.2083 69.5 12.2083C101.141 12.2083 126.792 37.8587 126.792 69.5C126.792 101.141 101.141 126.792 69.5 126.792ZM38.25 104.033L34.9372 100.944C26.2233 92.8188 22.625 83.7349 22.625 69.5C22.625 43.6117 43.6116 22.625 69.5 22.625C95.3885 22.625 116.375 43.6117 116.375 69.5C116.375 95.3885 95.3885 116.375 69.5 116.375C64.3661 116.375 61.9583 115.911 57.1872 114.311L53.0858 112.936L38.25 120.354V104.033Z" fill="#0038FF"/>
</svg>
